# xmcd
#
# Track frame offsets:
#	150
#	19220
#	38282
#	60847
#	87160
#	108657
#	124447
#	149565
#	162495
#	182860
#	204012
#	218532
#
# Disc length: 3266 seconds
#
# Revision: 1
# Processed by: cddbd v1.5.1PL0 Copyright (c) Steve Scherf et al.
# Submitted via: audiograbber 1.83.01
#
DISCID=a00cc00c
DTITLE=The Grinders Blues Band - Electric Blues
DYEAR=1996
DGENRE=Blues
TTITLE0=Make a Change
TTITLE1=Love Me or Leave Me
TTITLE2=Checkin' on My Baby
TTITLE3=Hey Baby
TTITLE4=Highwire
TTITLE5=Funky "Woman"
TTITLE6=Somebody to Love
TTITLE7=Born With the Blues
TTITLE8=Walkin' the Dog
TTITLE9=Heard You Been Talkin'
TTITLE10=Love You Baby
TTITLE11=Simple Things
EXTD=
EXTT0=
EXTT1=
EXTT2=Sonny Boy Williamson
EXTT3=Albert King
EXTT4=
EXTT5=Son Seals
EXTT6=
EXTT7=
EXTT8=Rufus Thomas
EXTT9=
EXTT10=
EXTT11=
PLAYORDER=
